<mxfile host="app.diagrams.net" modified="2023-02-13T16:42:24.545Z" agent="5.0 (Macintosh; Intel Mac OS X 10_15_7) AppleWebKit/537.36 (KHTML, like Gecko) Chrome/109.0.0.0 Safari/537.36" etag="PphjBNbrBGZ1l2k3Evzm" version="20.3.0" type="github">
  <diagram name="Page-1" id="8378b5f6-a2b2-b727-a746-972ab9d02e00">
    <mxGraphModel dx="848" dy="487" grid="1" gridSize="10" guides="1" tooltips="1" connect="0" arrows="1" fold="1" page="1" pageScale="1.5" pageWidth="1169" pageHeight="827" background="none" math="0" shadow="0">
      <root>
        <mxCell id="0" />
        <mxCell id="1" parent="0" />
        <mxCell id="63" value="1" style="strokeColor=#DEEDFF;fillColor=#ADC3D9" parent="1" vertex="1">
          <mxGeometry x="86.5" y="110" width="40" height="20" as="geometry" />
        </mxCell>
        <mxCell id="64" value="Complete project execution" style="align=left;strokeColor=#DEEDFF;fillColor=#ADC3D9" parent="1" vertex="1">
          <mxGeometry x="126.5" y="110" width="320" height="20" as="geometry" />
        </mxCell>
        <mxCell id="65" value="35 days" style="strokeColor=#DEEDFF;fillColor=#ADC3D9" parent="1" vertex="1">
          <mxGeometry x="446.50000000000176" y="110" width="80.00000000000028" height="20" as="geometry" />
        </mxCell>
        <mxCell id="66" value="16.04.12" style="strokeColor=#DEEDFF;fillColor=#ADC3D9" parent="1" vertex="1">
          <mxGeometry x="526.500000000002" y="110" width="80.00000000000028" height="20" as="geometry" />
        </mxCell>
        <mxCell id="67" value="1.06.12" style="strokeColor=#DEEDFF;fillColor=#ADC3D9" parent="1" vertex="1">
          <mxGeometry x="606.5000000000016" y="110.00000000000023" width="80.00000000000028" height="20" as="geometry" />
        </mxCell>
        <mxCell id="68" value="" style="strokeColor=#DEEDFF" parent="1" vertex="1">
          <mxGeometry x="686.500000000002" y="110.00000000000023" width="20" height="520" as="geometry" />
        </mxCell>
        <mxCell id="69" value="2" style="strokeColor=#DEEDFF;fillColor=#CCE5FF" parent="1" vertex="1">
          <mxGeometry x="86.50000000000026" y="129.9999999999999" width="40" height="20" as="geometry" />
        </mxCell>
        <mxCell id="70" value="Engineering" style="align=left;strokeColor=#DEEDFF;fillColor=#CCE5FF" parent="1" vertex="1">
          <mxGeometry x="126.50000000000026" y="129.9999999999999" width="319.9999999999998" height="20" as="geometry" />
        </mxCell>
        <mxCell id="71" value="35 days" style="strokeColor=#DEEDFF;fillColor=#CCE5FF" parent="1" vertex="1">
          <mxGeometry x="446.500000000002" y="129.99999999999983" width="80.00000000000028" height="20" as="geometry" />
        </mxCell>
        <mxCell id="72" value="16.04.12" style="strokeColor=#DEEDFF;fillColor=#CCE5FF" parent="1" vertex="1">
          <mxGeometry x="526.5000000000023" y="129.99999999999983" width="80.00000000000028" height="20" as="geometry" />
        </mxCell>
        <mxCell id="73" value="1.06.12" style="strokeColor=#DEEDFF;fillColor=#CCE5FF" parent="1" vertex="1">
          <mxGeometry x="606.5000000000018" y="130.0000000000001" width="80.00000000000028" height="20" as="geometry" />
        </mxCell>
        <mxCell id="74" value="3" style="strokeColor=#DEEDFF" parent="1" vertex="1">
          <mxGeometry x="86.50000000000027" y="149.99999999999977" width="40" height="20" as="geometry" />
        </mxCell>
        <mxCell id="75" value="Project examination" style="align=left;strokeColor=#DEEDFF" parent="1" vertex="1">
          <mxGeometry x="126.50000000000027" y="149.99999999999977" width="319.9999999999997" height="20.000000000000014" as="geometry" />
        </mxCell>
        <mxCell id="76" value="1 day" style="strokeColor=#DEEDFF" parent="1" vertex="1">
          <mxGeometry x="446.500000000002" y="149.99999999999972" width="80.00000000000028" height="20" as="geometry" />
        </mxCell>
        <mxCell id="77" value="16.04.12" style="strokeColor=#DEEDFF" parent="1" vertex="1">
          <mxGeometry x="526.5000000000023" y="149.99999999999972" width="80.00000000000028" height="20" as="geometry" />
        </mxCell>
        <mxCell id="78" value="16.04.12" style="strokeColor=#DEEDFF" parent="1" vertex="1">
          <mxGeometry x="606.5000000000018" y="150" width="80.00000000000028" height="20" as="geometry" />
        </mxCell>
        <mxCell id="79" value="4" style="strokeColor=#DEEDFF" parent="1" vertex="1">
          <mxGeometry x="86.5" y="170.00000000000017" width="40" height="20" as="geometry" />
        </mxCell>
        <mxCell id="80" value="Material specification" style="align=left;strokeColor=#DEEDFF" parent="1" vertex="1">
          <mxGeometry x="126.5" y="170.00000000000017" width="320" height="20" as="geometry" />
        </mxCell>
        <mxCell id="81" value="2 days" style="strokeColor=#DEEDFF" parent="1" vertex="1">
          <mxGeometry x="446.5000000000017" y="170.0000000000001" width="80.00000000000028" height="20" as="geometry" />
        </mxCell>
        <mxCell id="82" value="17.04.12" style="strokeColor=#DEEDFF" parent="1" vertex="1">
          <mxGeometry x="526.500000000002" y="170.0000000000001" width="80.00000000000028" height="20" as="geometry" />
        </mxCell>
        <mxCell id="83" value="18.04.12" style="strokeColor=#DEEDFF" parent="1" vertex="1">
          <mxGeometry x="606.5000000000015" y="170.0000000000004" width="80.00000000000028" height="20" as="geometry" />
        </mxCell>
        <mxCell id="84" value="5" style="strokeColor=#DEEDFF" parent="1" vertex="1">
          <mxGeometry x="86.49999999999991" y="190.00000000000017" width="40" height="20" as="geometry" />
        </mxCell>
        <mxCell id="85" value="Material ordering" style="align=left;strokeColor=#DEEDFF" parent="1" vertex="1">
          <mxGeometry x="126.49999999999991" y="190.00000000000017" width="320.0000000000001" height="20" as="geometry" />
        </mxCell>
        <mxCell id="86" value="1 day" style="strokeColor=#DEEDFF" parent="1" vertex="1">
          <mxGeometry x="446.50000000000165" y="190.0000000000001" width="80.00000000000028" height="20" as="geometry" />
        </mxCell>
        <mxCell id="87" value="19.04.12" style="strokeColor=#DEEDFF" parent="1" vertex="1">
          <mxGeometry x="526.5000000000019" y="190.0000000000001" width="80.00000000000028" height="20" as="geometry" />
        </mxCell>
        <mxCell id="88" value="19.04.12" style="strokeColor=#DEEDFF" parent="1" vertex="1">
          <mxGeometry x="606.5000000000015" y="190.0000000000004" width="80.00000000000028" height="20" as="geometry" />
        </mxCell>
        <mxCell id="89" value="6" style="strokeColor=#DEEDFF" parent="1" vertex="1">
          <mxGeometry x="86.4999999999999" y="210.00000000000045" width="40" height="20" as="geometry" />
        </mxCell>
        <mxCell id="90" value="Equipment layouting" style="align=left;strokeColor=#DEEDFF" parent="1" vertex="1">
          <mxGeometry x="126.4999999999999" y="210.00000000000045" width="320.0000000000001" height="20" as="geometry" />
        </mxCell>
        <mxCell id="91" value="3 days" style="strokeColor=#DEEDFF" parent="1" vertex="1">
          <mxGeometry x="446.50000000000165" y="210.00000000000034" width="80.00000000000028" height="20" as="geometry" />
        </mxCell>
        <mxCell id="92" value="20.04.12" style="strokeColor=#DEEDFF" parent="1" vertex="1">
          <mxGeometry x="526.5000000000019" y="210.00000000000034" width="80.00000000000028" height="20" as="geometry" />
        </mxCell>
        <mxCell id="93" value="24.04.12" style="strokeColor=#DEEDFF" parent="1" vertex="1">
          <mxGeometry x="606.5000000000015" y="210.00000000000068" width="80.00000000000028" height="20" as="geometry" />
        </mxCell>
        <mxCell id="94" value="7" style="strokeColor=#DEEDFF" parent="1" vertex="1">
          <mxGeometry x="86.50000000000063" y="230.00000000000068" width="40" height="20" as="geometry" />
        </mxCell>
        <mxCell id="95" value="Supervision and meetings" style="align=left;strokeColor=#DEEDFF" parent="1" vertex="1">
          <mxGeometry x="126.50000000000063" y="230.00000000000068" width="319.9999999999994" height="20" as="geometry" />
        </mxCell>
        <mxCell id="96" value="27 days" style="strokeColor=#DEEDFF" parent="1" vertex="1">
          <mxGeometry x="446.5000000000024" y="230.00000000000068" width="80.00000000000028" height="20" as="geometry" />
        </mxCell>
        <mxCell id="97" value="25.04.12" style="strokeColor=#DEEDFF" parent="1" vertex="1">
          <mxGeometry x="526.5000000000027" y="230.00000000000068" width="80.00000000000028" height="20" as="geometry" />
        </mxCell>
        <mxCell id="98" value="31.05.12" style="strokeColor=#DEEDFF" parent="1" vertex="1">
          <mxGeometry x="606.5000000000022" y="230.0000000000009" width="80.00000000000028" height="20" as="geometry" />
        </mxCell>
        <mxCell id="99" value="8" style="strokeColor=#DEEDFF" parent="1" vertex="1">
          <mxGeometry x="86.50000000000064" y="250.00000000000057" width="40" height="20" as="geometry" />
        </mxCell>
        <mxCell id="100" value="Bill of works" style="align=left;strokeColor=#DEEDFF" parent="1" vertex="1">
          <mxGeometry x="126.50000000000064" y="250.00000000000057" width="319.9999999999994" height="20" as="geometry" />
        </mxCell>
        <mxCell id="101" value="1 day" style="strokeColor=#DEEDFF" parent="1" vertex="1">
          <mxGeometry x="446.5000000000024" y="250.00000000000057" width="80.00000000000028" height="20" as="geometry" />
        </mxCell>
        <mxCell id="102" value="1.06.12" style="strokeColor=#DEEDFF" parent="1" vertex="1">
          <mxGeometry x="526.5000000000027" y="250.00000000000057" width="80.00000000000028" height="20" as="geometry" />
        </mxCell>
        <mxCell id="103" value="1.06.12" style="strokeColor=#DEEDFF" parent="1" vertex="1">
          <mxGeometry x="606.5000000000022" y="250.0000000000008" width="80.00000000000028" height="20" as="geometry" />
        </mxCell>
        <mxCell id="104" value="9" style="strokeColor=#DEEDFF;fillColor=#CCE5FF" parent="1" vertex="1">
          <mxGeometry x="86.50000000000037" y="270.000000000001" width="40" height="20" as="geometry" />
        </mxCell>
        <mxCell id="105" value="Workshop" style="align=left;strokeColor=#DEEDFF;fillColor=#CCE5FF" parent="1" vertex="1">
          <mxGeometry x="126.50000000000037" y="270.000000000001" width="319.99999999999966" height="20.00000000000003" as="geometry" />
        </mxCell>
        <mxCell id="106" value="20 days" style="strokeColor=#DEEDFF;fillColor=#CCE5FF" parent="1" vertex="1">
          <mxGeometry x="446.5000000000021" y="270.0000000000009" width="80.00000000000028" height="20" as="geometry" />
        </mxCell>
        <mxCell id="107" value="24.04.12" style="strokeColor=#DEEDFF;fillColor=#CCE5FF" parent="1" vertex="1">
          <mxGeometry x="526.5000000000025" y="270.0000000000009" width="80.00000000000028" height="20" as="geometry" />
        </mxCell>
        <mxCell id="108" value="21.05.12" style="strokeColor=#DEEDFF;fillColor=#CCE5FF" parent="1" vertex="1">
          <mxGeometry x="606.5000000000018" y="270.00000000000125" width="80.00000000000028" height="20" as="geometry" />
        </mxCell>
        <mxCell id="109" value="10" style="strokeColor=#DEEDFF" parent="1" vertex="1">
          <mxGeometry x="86.50000000000028" y="290.000000000001" width="40" height="20" as="geometry" />
        </mxCell>
        <mxCell id="110" value="Project examination and material comparison" style="align=left;strokeColor=#DEEDFF" parent="1" vertex="1">
          <mxGeometry x="126.50000000000028" y="290.000000000001" width="319.9999999999997" height="20" as="geometry" />
        </mxCell>
        <mxCell id="111" value="2 days" style="strokeColor=#DEEDFF" parent="1" vertex="1">
          <mxGeometry x="446.50000000000205" y="290.0000000000009" width="80.00000000000028" height="20" as="geometry" />
        </mxCell>
        <mxCell id="112" value="24.04.12" style="strokeColor=#DEEDFF" parent="1" vertex="1">
          <mxGeometry x="526.5000000000023" y="290.0000000000009" width="80.00000000000028" height="20" as="geometry" />
        </mxCell>
        <mxCell id="113" value="25.04.12" style="strokeColor=#DEEDFF" parent="1" vertex="1">
          <mxGeometry x="606.5000000000018" y="290.00000000000125" width="80.00000000000028" height="20" as="geometry" />
        </mxCell>
        <mxCell id="114" value="11" style="strokeColor=#DEEDFF" parent="1" vertex="1">
          <mxGeometry x="86.50000000000027" y="310.00000000000125" width="40" height="20" as="geometry" />
        </mxCell>
        <mxCell id="115" value="Preparing distribution boards" style="align=left;strokeColor=#DEEDFF" parent="1" vertex="1">
          <mxGeometry x="126.50000000000027" y="310.00000000000125" width="319.9999999999997" height="20" as="geometry" />
        </mxCell>
        <mxCell id="116" value="2 days" style="strokeColor=#DEEDFF" parent="1" vertex="1">
          <mxGeometry x="446.50000000000205" y="310.00000000000114" width="80.00000000000028" height="20" as="geometry" />
        </mxCell>
        <mxCell id="117" value="26.04.12" style="strokeColor=#DEEDFF" parent="1" vertex="1">
          <mxGeometry x="526.5000000000023" y="310.00000000000114" width="80.00000000000028" height="20" as="geometry" />
        </mxCell>
        <mxCell id="118" value="27.04.12" style="strokeColor=#DEEDFF" parent="1" vertex="1">
          <mxGeometry x="606.5000000000018" y="310.0000000000015" width="80.00000000000028" height="20" as="geometry" />
        </mxCell>
        <mxCell id="119" value="12" style="strokeColor=#DEEDFF" parent="1" vertex="1">
          <mxGeometry x="86.49999999999997" y="330.0000000000016" width="40" height="20" as="geometry" />
        </mxCell>
        <mxCell id="120" value="Mounting equipment" style="align=left;strokeColor=#DEEDFF" parent="1" vertex="1">
          <mxGeometry x="126.49999999999997" y="330.0000000000016" width="320" height="20" as="geometry" />
        </mxCell>
        <mxCell id="121" value="3 days" style="strokeColor=#DEEDFF" parent="1" vertex="1">
          <mxGeometry x="446.5000000000017" y="330.0000000000015" width="80.00000000000028" height="20" as="geometry" />
        </mxCell>
        <mxCell id="122" value="30.04.12" style="strokeColor=#DEEDFF" parent="1" vertex="1">
          <mxGeometry x="526.500000000002" y="330.0000000000015" width="80.00000000000028" height="20" as="geometry" />
        </mxCell>
        <mxCell id="123" value="2.05.12" style="strokeColor=#DEEDFF" parent="1" vertex="1">
          <mxGeometry x="606.5000000000015" y="330.0000000000018" width="80.00000000000028" height="20" as="geometry" />
        </mxCell>
        <mxCell id="124" value="13" style="strokeColor=#DEEDFF" parent="1" vertex="1">
          <mxGeometry x="86.49999999999999" y="350.00000000000136" width="40" height="20" as="geometry" />
        </mxCell>
        <mxCell id="125" value="Wiring" style="align=left;strokeColor=#DEEDFF" parent="1" vertex="1">
          <mxGeometry x="126.49999999999999" y="350.00000000000136" width="320" height="20" as="geometry" />
        </mxCell>
        <mxCell id="126" value="10 days" style="strokeColor=#DEEDFF" parent="1" vertex="1">
          <mxGeometry x="446.5000000000017" y="350.00000000000136" width="80.00000000000028" height="20" as="geometry" />
        </mxCell>
        <mxCell id="127" value="3.05.12" style="strokeColor=#DEEDFF" parent="1" vertex="1">
          <mxGeometry x="526.500000000002" y="350.00000000000136" width="80.00000000000028" height="20" as="geometry" />
        </mxCell>
        <mxCell id="128" value="16.05.12" style="strokeColor=#DEEDFF" parent="1" vertex="1">
          <mxGeometry x="606.5000000000015" y="350.0000000000016" width="80.00000000000028" height="20" as="geometry" />
        </mxCell>
        <mxCell id="129" value="14" style="strokeColor=#DEEDFF" parent="1" vertex="1">
          <mxGeometry x="86.49999999999972" y="370.0000000000018" width="40" height="20" as="geometry" />
        </mxCell>
        <mxCell id="130" value="Testing" style="align=left;strokeColor=#DEEDFF" parent="1" vertex="1">
          <mxGeometry x="126.49999999999972" y="370.0000000000018" width="320.0000000000003" height="20" as="geometry" />
        </mxCell>
        <mxCell id="131" value="2 days" style="strokeColor=#DEEDFF" parent="1" vertex="1">
          <mxGeometry x="446.5000000000014" y="370.0000000000018" width="80.00000000000028" height="20" as="geometry" />
        </mxCell>
        <mxCell id="132" value="17.05.12" style="strokeColor=#DEEDFF" parent="1" vertex="1">
          <mxGeometry x="526.5000000000018" y="370.0000000000018" width="80.00000000000028" height="20" as="geometry" />
        </mxCell>
        <mxCell id="133" value="18.05.12" style="strokeColor=#DEEDFF" parent="1" vertex="1">
          <mxGeometry x="606.5000000000011" y="370.00000000000205" width="80.00000000000028" height="20" as="geometry" />
        </mxCell>
        <mxCell id="134" value="15" style="strokeColor=#DEEDFF;fillColor=#FFFFFF" parent="1" vertex="1">
          <mxGeometry x="86.49999999999963" y="390.0000000000018" width="40" height="20" as="geometry" />
        </mxCell>
        <mxCell id="135" value="Packaging" style="align=left;strokeColor=#DEEDFF;fillColor=#FFFFFF" parent="1" vertex="1">
          <mxGeometry x="126.49999999999963" y="390.0000000000018" width="320.00000000000034" height="20" as="geometry" />
        </mxCell>
        <mxCell id="136" value="1 day" style="strokeColor=#DEEDFF;fillColor=#FFFFFF" parent="1" vertex="1">
          <mxGeometry x="446.50000000000136" y="390.0000000000018" width="80.00000000000028" height="20" as="geometry" />
        </mxCell>
        <mxCell id="137" value="21.05.12" style="strokeColor=#DEEDFF;fillColor=#FFFFFF" parent="1" vertex="1">
          <mxGeometry x="526.5000000000016" y="390.0000000000018" width="80.00000000000028" height="20" as="geometry" />
        </mxCell>
        <mxCell id="138" value="21.05.12" style="strokeColor=#DEEDFF;fillColor=#FFFFFF" parent="1" vertex="1">
          <mxGeometry x="606.5000000000011" y="390.00000000000205" width="80.00000000000028" height="20" as="geometry" />
        </mxCell>
        <mxCell id="139" value="16" style="strokeColor=#DEEDFF;fillColor=#CCE5FF" parent="1" vertex="1">
          <mxGeometry x="86.49999999999962" y="410.00000000000205" width="40" height="20" as="geometry" />
        </mxCell>
        <mxCell id="140" value="Field" style="align=left;strokeColor=#DEEDFF;fillColor=#CCE5FF" parent="1" vertex="1">
          <mxGeometry x="126.49999999999962" y="410.00000000000205" width="320.0000000000004" height="20" as="geometry" />
        </mxCell>
        <mxCell id="141" value="31 days" style="strokeColor=#DEEDFF;fillColor=#CCE5FF" parent="1" vertex="1">
          <mxGeometry x="446.50000000000136" y="410.00000000000205" width="80.00000000000028" height="20" as="geometry" />
        </mxCell>
        <mxCell id="142" value="19.04.12" style="strokeColor=#DEEDFF;fillColor=#CCE5FF" parent="1" vertex="1">
          <mxGeometry x="526.5000000000016" y="410.00000000000205" width="80.00000000000028" height="20" as="geometry" />
        </mxCell>
        <mxCell id="143" value="31.05.12" style="strokeColor=#DEEDFF;fillColor=#CCE5FF" parent="1" vertex="1">
          <mxGeometry x="606.5000000000011" y="410.0000000000023" width="80.00000000000028" height="20" as="geometry" />
        </mxCell>
        <mxCell id="144" value="17" style="strokeColor=#DEEDFF" parent="1" vertex="1">
          <mxGeometry x="86.500000000001" y="430.0000000000023" width="40" height="20" as="geometry" />
        </mxCell>
        <mxCell id="145" value="Field preparations and digging" style="align=left;strokeColor=#DEEDFF" parent="1" vertex="1">
          <mxGeometry x="126.500000000001" y="430.0000000000023" width="319.999999999999" height="20" as="geometry" />
        </mxCell>
        <mxCell id="146" value="7 days" style="strokeColor=#DEEDFF" parent="1" vertex="1">
          <mxGeometry x="446.50000000000273" y="430.0000000000023" width="80.00000000000028" height="20" as="geometry" />
        </mxCell>
        <mxCell id="147" value="19.04.12" style="strokeColor=#DEEDFF" parent="1" vertex="1">
          <mxGeometry x="526.500000000003" y="430.0000000000023" width="80.00000000000028" height="20" as="geometry" />
        </mxCell>
        <mxCell id="148" value="27.04.12" style="strokeColor=#DEEDFF" parent="1" vertex="1">
          <mxGeometry x="606.5000000000025" y="430.0000000000025" width="80.00000000000028" height="20" as="geometry" />
        </mxCell>
        <mxCell id="149" value="18" style="strokeColor=#DEEDFF" parent="1" vertex="1">
          <mxGeometry x="86.50000000000102" y="450.00000000000216" width="40" height="20" as="geometry" />
        </mxCell>
        <mxCell id="150" value="Cable laying" style="align=left;strokeColor=#DEEDFF" parent="1" vertex="1">
          <mxGeometry x="126.50000000000102" y="450.00000000000216" width="319.999999999999" height="20" as="geometry" />
        </mxCell>
        <mxCell id="151" value="4 days" style="strokeColor=#DEEDFF" parent="1" vertex="1">
          <mxGeometry x="446.50000000000273" y="450.00000000000205" width="80.00000000000028" height="20" as="geometry" />
        </mxCell>
        <mxCell id="152" value="30.04.12" style="strokeColor=#DEEDFF" parent="1" vertex="1">
          <mxGeometry x="526.500000000003" y="450.00000000000205" width="80.00000000000028" height="20" as="geometry" />
        </mxCell>
        <mxCell id="153" value="3.05.12" style="strokeColor=#DEEDFF" parent="1" vertex="1">
          <mxGeometry x="606.5000000000025" y="450.0000000000024" width="80.00000000000028" height="20" as="geometry" />
        </mxCell>
        <mxCell id="154" value="19" style="strokeColor=#DEEDFF" parent="1" vertex="1">
          <mxGeometry x="86.50000000000074" y="470.0000000000025" width="40" height="20" as="geometry" />
        </mxCell>
        <mxCell id="155" value="Installation laying" style="align=left;strokeColor=#DEEDFF" parent="1" vertex="1">
          <mxGeometry x="126.50000000000074" y="470.0000000000025" width="319.99999999999926" height="20" as="geometry" />
        </mxCell>
        <mxCell id="156" value="13 days" style="strokeColor=#DEEDFF" parent="1" vertex="1">
          <mxGeometry x="446.50000000000244" y="470.0000000000025" width="80.00000000000028" height="20" as="geometry" />
        </mxCell>
        <mxCell id="157" value="4.05.12" style="strokeColor=#DEEDFF" parent="1" vertex="1">
          <mxGeometry x="526.5000000000027" y="470.0000000000025" width="80.00000000000028" height="20" as="geometry" />
        </mxCell>
        <mxCell id="158" value="22.05.12" style="strokeColor=#DEEDFF" parent="1" vertex="1">
          <mxGeometry x="606.5000000000023" y="470.00000000000273" width="80.00000000000028" height="20" as="geometry" />
        </mxCell>
        <mxCell id="159" value="20" style="strokeColor=#DEEDFF" parent="1" vertex="1">
          <mxGeometry x="86.50000000000065" y="490.0000000000025" width="40" height="20" as="geometry" />
        </mxCell>
        <mxCell id="160" value="Mount distribution boards" style="align=left;strokeColor=#DEEDFF" parent="1" vertex="1">
          <mxGeometry x="126.50000000000065" y="490.0000000000025" width="319.9999999999993" height="20" as="geometry" />
        </mxCell>
        <mxCell id="161" value="1 day" style="strokeColor=#DEEDFF" parent="1" vertex="1">
          <mxGeometry x="446.5000000000024" y="490.0000000000025" width="80.00000000000028" height="20" as="geometry" />
        </mxCell>
        <mxCell id="162" value="23.05.12" style="strokeColor=#DEEDFF" parent="1" vertex="1">
          <mxGeometry x="526.5000000000027" y="490.0000000000025" width="80.00000000000028" height="20" as="geometry" />
        </mxCell>
        <mxCell id="163" value="23.05.12" style="strokeColor=#DEEDFF" parent="1" vertex="1">
          <mxGeometry x="606.5000000000023" y="490.00000000000273" width="80.00000000000028" height="20" as="geometry" />
        </mxCell>
        <mxCell id="164" value="21" style="strokeColor=#DEEDFF" parent="1" vertex="1">
          <mxGeometry x="86.50000000000065" y="510.00000000000284" width="40" height="20" as="geometry" />
        </mxCell>
        <mxCell id="165" value="Wiring distribution boards" style="align=left;strokeColor=#DEEDFF" parent="1" vertex="1">
          <mxGeometry x="126.50000000000065" y="510.00000000000284" width="319.9999999999993" height="20" as="geometry" />
        </mxCell>
        <mxCell id="166" value="4 days" style="strokeColor=#DEEDFF" parent="1" vertex="1">
          <mxGeometry x="446.5000000000024" y="510.00000000000273" width="80.00000000000028" height="20" as="geometry" />
        </mxCell>
        <mxCell id="167" value="24.05.12" style="strokeColor=#DEEDFF" parent="1" vertex="1">
          <mxGeometry x="526.5000000000027" y="510.00000000000273" width="80.00000000000028" height="20" as="geometry" />
        </mxCell>
        <mxCell id="168" value="29.05.12" style="strokeColor=#DEEDFF" parent="1" vertex="1">
          <mxGeometry x="606.5000000000023" y="510.00000000000307" width="80.00000000000028" height="20" as="geometry" />
        </mxCell>
        <mxCell id="169" value="22" style="strokeColor=#DEEDFF" parent="1" vertex="1">
          <mxGeometry x="86.50000000000136" y="530.0000000000031" width="40" height="20" as="geometry" />
        </mxCell>
        <mxCell id="170" value="Testing" style="align=left;strokeColor=#DEEDFF" parent="1" vertex="1">
          <mxGeometry x="126.50000000000136" y="530.0000000000031" width="319.99999999999864" height="20" as="geometry" />
        </mxCell>
        <mxCell id="171" value="2 days" style="strokeColor=#DEEDFF" parent="1" vertex="1">
          <mxGeometry x="446.5000000000031" y="530.000000000003" width="80.00000000000028" height="20" as="geometry" />
        </mxCell>
        <mxCell id="172" value="30.05.12" style="strokeColor=#DEEDFF" parent="1" vertex="1">
          <mxGeometry x="526.5000000000034" y="530.000000000003" width="80.00000000000028" height="20" as="geometry" />
        </mxCell>
        <mxCell id="173" value="31.05.12" style="strokeColor=#DEEDFF" parent="1" vertex="1">
          <mxGeometry x="606.500000000003" y="530.0000000000033" width="80.00000000000028" height="20" as="geometry" />
        </mxCell>
        <mxCell id="174" value="23" style="strokeColor=#DEEDFF" parent="1" vertex="1">
          <mxGeometry x="86.50000000000139" y="550.000000000003" width="40" height="20" as="geometry" />
        </mxCell>
        <mxCell id="175" value="" style="align=left;strokeColor=#DEEDFF" parent="1" vertex="1">
          <mxGeometry x="126.50000000000139" y="550.000000000003" width="319.99999999999864" height="20" as="geometry" />
        </mxCell>
        <mxCell id="176" value="" style="strokeColor=#DEEDFF" parent="1" vertex="1">
          <mxGeometry x="446.5000000000031" y="550.000000000003" width="80.00000000000028" height="20" as="geometry" />
        </mxCell>
        <mxCell id="177" value="" style="strokeColor=#DEEDFF" parent="1" vertex="1">
          <mxGeometry x="526.5000000000034" y="550.000000000003" width="80.00000000000028" height="20" as="geometry" />
        </mxCell>
        <mxCell id="178" value="" style="strokeColor=#DEEDFF" parent="1" vertex="1">
          <mxGeometry x="606.500000000003" y="550.0000000000032" width="80.00000000000028" height="20" as="geometry" />
        </mxCell>
        <mxCell id="179" value="24" style="strokeColor=#DEEDFF" parent="1" vertex="1">
          <mxGeometry x="86.50000000000111" y="570.0000000000034" width="40" height="20" as="geometry" />
        </mxCell>
        <mxCell id="180" value="" style="align=left;strokeColor=#DEEDFF" parent="1" vertex="1">
          <mxGeometry x="126.50000000000111" y="570.0000000000034" width="319.99999999999886" height="20" as="geometry" />
        </mxCell>
        <mxCell id="181" value="" style="strokeColor=#DEEDFF" parent="1" vertex="1">
          <mxGeometry x="446.50000000000284" y="570.0000000000033" width="80.00000000000028" height="20" as="geometry" />
        </mxCell>
        <mxCell id="182" value="" style="strokeColor=#DEEDFF" parent="1" vertex="1">
          <mxGeometry x="526.5000000000032" y="570.0000000000033" width="80.00000000000028" height="20" as="geometry" />
        </mxCell>
        <mxCell id="183" value="" style="strokeColor=#DEEDFF" parent="1" vertex="1">
          <mxGeometry x="606.5000000000026" y="570.0000000000036" width="80.00000000000028" height="20" as="geometry" />
        </mxCell>
        <mxCell id="184" value="25" style="strokeColor=#DEEDFF" parent="1" vertex="1">
          <mxGeometry x="86.50000000000102" y="590.0000000000034" width="40" height="20" as="geometry" />
        </mxCell>
        <mxCell id="185" value="" style="align=left;strokeColor=#DEEDFF" parent="1" vertex="1">
          <mxGeometry x="126.50000000000102" y="590.0000000000034" width="319.999999999999" height="20" as="geometry" />
        </mxCell>
        <mxCell id="186" value="" style="strokeColor=#DEEDFF" parent="1" vertex="1">
          <mxGeometry x="446.5000000000028" y="590.0000000000033" width="80.00000000000028" height="20" as="geometry" />
        </mxCell>
        <mxCell id="187" value="" style="strokeColor=#DEEDFF" parent="1" vertex="1">
          <mxGeometry x="526.5000000000031" y="590.0000000000033" width="80.00000000000028" height="20" as="geometry" />
        </mxCell>
        <mxCell id="188" value="" style="strokeColor=#DEEDFF" parent="1" vertex="1">
          <mxGeometry x="606.5000000000026" y="590.0000000000036" width="80.00000000000028" height="20" as="geometry" />
        </mxCell>
        <mxCell id="189" value="26" style="strokeColor=#DEEDFF" parent="1" vertex="1">
          <mxGeometry x="86.50000000000102" y="610.0000000000036" width="40" height="20" as="geometry" />
        </mxCell>
        <mxCell id="190" value="" style="align=left;strokeColor=#DEEDFF" parent="1" vertex="1">
          <mxGeometry x="126.500000000001" y="610.0000000000036" width="319.999999999999" height="20" as="geometry" />
        </mxCell>
        <mxCell id="191" value="" style="strokeColor=#DEEDFF" parent="1" vertex="1">
          <mxGeometry x="446.5000000000028" y="610.0000000000035" width="80.00000000000028" height="20" as="geometry" />
        </mxCell>
        <mxCell id="192" value="" style="strokeColor=#DEEDFF" parent="1" vertex="1">
          <mxGeometry x="526.5000000000031" y="610.0000000000035" width="80.00000000000028" height="20" as="geometry" />
        </mxCell>
        <mxCell id="193" value="" style="strokeColor=#DEEDFF" parent="1" vertex="1">
          <mxGeometry x="606.5000000000026" y="610.0000000000039" width="80.00000000000028" height="20" as="geometry" />
        </mxCell>
        <mxCell id="194" value="" style="strokeColor=#DEEDFF" parent="1" vertex="1">
          <mxGeometry x="706.500000000002" y="110.00000000000387" width="20" height="520" as="geometry" />
        </mxCell>
        <mxCell id="195" value="" style="strokeColor=#DEEDFF" parent="1" vertex="1">
          <mxGeometry x="726.500000000002" y="110.00000000000387" width="20" height="520" as="geometry" />
        </mxCell>
        <mxCell id="196" value="" style="strokeColor=#DEEDFF" parent="1" vertex="1">
          <mxGeometry x="746.500000000002" y="110.00000000000387" width="20" height="520" as="geometry" />
        </mxCell>
        <mxCell id="197" value="" style="strokeColor=#DEEDFF" parent="1" vertex="1">
          <mxGeometry x="766.500000000002" y="110.00000000000387" width="20" height="520" as="geometry" />
        </mxCell>
        <mxCell id="198" value="" style="strokeColor=#DEEDFF;fillColor=#D4E1FF" parent="1" vertex="1">
          <mxGeometry x="786.500000000002" y="110.0000000000075" width="20" height="520" as="geometry" />
        </mxCell>
        <mxCell id="199" value="" style="strokeColor=#DEEDFF;fillColor=#D4E1FF" parent="1" vertex="1">
          <mxGeometry x="806.500000000002" y="110.0000000000075" width="20" height="520" as="geometry" />
        </mxCell>
        <mxCell id="200" value="" style="strokeColor=#DEEDFF" parent="1" vertex="1">
          <mxGeometry x="826.500000000002" y="110.0000000000075" width="20" height="520" as="geometry" />
        </mxCell>
        <mxCell id="201" value="" style="strokeColor=#DEEDFF" parent="1" vertex="1">
          <mxGeometry x="846.5000000000016" y="110.0000000000075" width="20" height="520" as="geometry" />
        </mxCell>
        <mxCell id="202" value="" style="strokeColor=#DEEDFF" parent="1" vertex="1">
          <mxGeometry x="866.5000000000016" y="110.00000000001114" width="20" height="520" as="geometry" />
        </mxCell>
        <mxCell id="203" value="" style="strokeColor=#DEEDFF" parent="1" vertex="1">
          <mxGeometry x="886.5000000000016" y="110.00000000001114" width="20" height="520" as="geometry" />
        </mxCell>
        <mxCell id="204" value="" style="strokeColor=#DEEDFF" parent="1" vertex="1">
          <mxGeometry x="906.5000000000016" y="110.00000000001114" width="20" height="520" as="geometry" />
        </mxCell>
        <mxCell id="205" value="" style="strokeColor=#DEEDFF;fillColor=#D4E1FF" parent="1" vertex="1">
          <mxGeometry x="926.5000000000018" y="110.00000000001114" width="20" height="520" as="geometry" />
        </mxCell>
        <mxCell id="206" value="" style="strokeColor=#DEEDFF;fillColor=#D4E1FF" parent="1" vertex="1">
          <mxGeometry x="946.5000000000018" y="110.00000000001478" width="20" height="520" as="geometry" />
        </mxCell>
        <mxCell id="207" value="" style="strokeColor=#DEEDFF" parent="1" vertex="1">
          <mxGeometry x="966.5000000000018" y="110.00000000001478" width="20" height="520" as="geometry" />
        </mxCell>
        <mxCell id="208" value="" style="strokeColor=#DEEDFF" parent="1" vertex="1">
          <mxGeometry x="986.5000000000018" y="110.00000000001478" width="20" height="520" as="geometry" />
        </mxCell>
        <mxCell id="209" value="" style="strokeColor=#DEEDFF" parent="1" vertex="1">
          <mxGeometry x="1006.5000000000018" y="110.00000000000023" width="20" height="520" as="geometry" />
        </mxCell>
        <mxCell id="210" value="" style="strokeColor=#DEEDFF" parent="1" vertex="1">
          <mxGeometry x="1026.5000000000018" y="110.00000000000387" width="20" height="520" as="geometry" />
        </mxCell>
        <mxCell id="211" value="" style="strokeColor=#DEEDFF" parent="1" vertex="1">
          <mxGeometry x="1046.5000000000018" y="110.00000000000387" width="20" height="520" as="geometry" />
        </mxCell>
        <mxCell id="212" value="" style="strokeColor=#DEEDFF;fillColor=#D4E1FF" parent="1" vertex="1">
          <mxGeometry x="1066.5000000000018" y="110.00000000000387" width="20" height="520" as="geometry" />
        </mxCell>
        <mxCell id="213" value="" style="strokeColor=#DEEDFF;fillColor=#D4E1FF" parent="1" vertex="1">
          <mxGeometry x="1086.5000000000018" y="110.00000000001478" width="20" height="520" as="geometry" />
        </mxCell>
        <mxCell id="214" value="" style="strokeColor=#DEEDFF" parent="1" vertex="1">
          <mxGeometry x="1106.5000000000018" y="110.00000000001842" width="20" height="520" as="geometry" />
        </mxCell>
        <mxCell id="215" value="" style="strokeColor=#DEEDFF" parent="1" vertex="1">
          <mxGeometry x="1126.5000000000018" y="110.00000000001842" width="20" height="520" as="geometry" />
        </mxCell>
        <mxCell id="216" value="" style="strokeColor=#DEEDFF" parent="1" vertex="1">
          <mxGeometry x="1146.5000000000018" y="110.00000000001842" width="20" height="520" as="geometry" />
        </mxCell>
        <mxCell id="217" value="" style="strokeColor=#DEEDFF" parent="1" vertex="1">
          <mxGeometry x="1166.500000000002" y="110.00000000001842" width="20" height="520" as="geometry" />
        </mxCell>
        <mxCell id="218" value="" style="strokeColor=#DEEDFF" parent="1" vertex="1">
          <mxGeometry x="1186.500000000002" y="110.00000000002206" width="20" height="520" as="geometry" />
        </mxCell>
        <mxCell id="219" value="" style="strokeColor=#DEEDFF;fillColor=#D4E1FF" parent="1" vertex="1">
          <mxGeometry x="1206.500000000002" y="110.00000000002206" width="20" height="520" as="geometry" />
        </mxCell>
        <mxCell id="220" value="" style="strokeColor=#DEEDFF;fillColor=#D4E1FF" parent="1" vertex="1">
          <mxGeometry x="1226.500000000002" y="110.00000000002206" width="20" height="520" as="geometry" />
        </mxCell>
        <mxCell id="221" value="" style="strokeColor=#DEEDFF" parent="1" vertex="1">
          <mxGeometry x="1246.500000000002" y="110.00000000002206" width="20" height="520" as="geometry" />
        </mxCell>
        <mxCell id="222" value="" style="strokeColor=#DEEDFF" parent="1" vertex="1">
          <mxGeometry x="1266.500000000002" y="110.0000000000257" width="20" height="520" as="geometry" />
        </mxCell>
        <mxCell id="223" value="" style="strokeColor=#DEEDFF" parent="1" vertex="1">
          <mxGeometry x="1286.500000000002" y="110.0000000000257" width="20" height="520" as="geometry" />
        </mxCell>
        <mxCell id="224" value="" style="strokeColor=#DEEDFF" parent="1" vertex="1">
          <mxGeometry x="1306.500000000002" y="110.0000000000257" width="20" height="520" as="geometry" />
        </mxCell>
        <mxCell id="225" value="" style="strokeColor=#DEEDFF" parent="1" vertex="1">
          <mxGeometry x="1326.5000000000016" y="110.0000000000257" width="20" height="520" as="geometry" />
        </mxCell>
        <mxCell id="226" value="" style="strokeColor=#DEEDFF;fillColor=#D4E1FF" parent="1" vertex="1">
          <mxGeometry x="1346.5000000000016" y="110.00000000002933" width="20" height="520" as="geometry" />
        </mxCell>
        <mxCell id="227" value="" style="strokeColor=#DEEDFF;fillColor=#D4E1FF" parent="1" vertex="1">
          <mxGeometry x="1366.5000000000016" y="110.00000000002933" width="20" height="520" as="geometry" />
        </mxCell>
        <mxCell id="228" value="" style="strokeColor=#DEEDFF" parent="1" vertex="1">
          <mxGeometry x="1386.5000000000016" y="110.00000000002933" width="20" height="520" as="geometry" />
        </mxCell>
        <mxCell id="229" value="" style="strokeColor=#DEEDFF" parent="1" vertex="1">
          <mxGeometry x="1406.5000000000016" y="110.00000000002933" width="20" height="520" as="geometry" />
        </mxCell>
        <mxCell id="230" value="" style="strokeColor=#DEEDFF" parent="1" vertex="1">
          <mxGeometry x="1426.5000000000016" y="110.00000000003297" width="20" height="520" as="geometry" />
        </mxCell>
        <mxCell id="231" value="" style="strokeColor=#DEEDFF" parent="1" vertex="1">
          <mxGeometry x="1446.5000000000016" y="110.00000000003297" width="20" height="520" as="geometry" />
        </mxCell>
        <mxCell id="232" value="" style="strokeColor=#DEEDFF" parent="1" vertex="1">
          <mxGeometry x="1466.5000000000016" y="110.00000000003297" width="20" height="520" as="geometry" />
        </mxCell>
        <mxCell id="233" value="" style="strokeColor=#DEEDFF;fillColor=#D4E1FF" parent="1" vertex="1">
          <mxGeometry x="1486.5000000000016" y="110.00000000001842" width="20" height="520" as="geometry" />
        </mxCell>
        <mxCell id="234" value="" style="strokeColor=#DEEDFF;fillColor=#D4E1FF" parent="1" vertex="1">
          <mxGeometry x="1506.5000000000016" y="110.00000000002206" width="20" height="520" as="geometry" />
        </mxCell>
        <mxCell id="235" value="" style="strokeColor=#DEEDFF" parent="1" vertex="1">
          <mxGeometry x="1526.5000000000016" y="110.00000000002206" width="20" height="520" as="geometry" />
        </mxCell>
        <mxCell id="236" value="" style="strokeColor=#DEEDFF" parent="1" vertex="1">
          <mxGeometry x="1546.5000000000016" y="110.00000000002206" width="20" height="520" as="geometry" />
        </mxCell>
        <mxCell id="237" value="" style="strokeColor=#DEEDFF" parent="1" vertex="1">
          <mxGeometry x="1566.5000000000016" y="110.00000000003297" width="20" height="520" as="geometry" />
        </mxCell>
        <mxCell id="238" value="" style="strokeColor=#DEEDFF" parent="1" vertex="1">
          <mxGeometry x="1586.5000000000016" y="110.00000000003661" width="20" height="520" as="geometry" />
        </mxCell>
        <mxCell id="239" value="" style="strokeColor=#DEEDFF" parent="1" vertex="1">
          <mxGeometry x="1606.5000000000016" y="110.00000000003661" width="20" height="520" as="geometry" />
        </mxCell>
        <mxCell id="240" value="" style="strokeColor=#DEEDFF;fillColor=#D4E1FF" parent="1" vertex="1">
          <mxGeometry x="1626.5000000000016" y="110.00000000003661" width="20" height="520" as="geometry" />
        </mxCell>
        <mxCell id="241" value="" style="strokeColor=#DEEDFF;fillColor=#D4E1FF" parent="1" vertex="1">
          <mxGeometry x="1646.5000000000018" y="110.00000000003661" width="20" height="520" as="geometry" />
        </mxCell>
        <mxCell id="2" value="Task Name" style="fillColor=#23445D;strokeColor=#FFFFFF;strokeWidth=2;fontColor=#FFFFFF;fontStyle=1" parent="1" vertex="1">
          <mxGeometry x="126.5" y="70" width="320" height="40" as="geometry" />
        </mxCell>
        <mxCell id="3" value="" style="fillColor=#23445D;strokeColor=#FFFFFF;strokeWidth=2;fontColor=#FFFFFF;fontStyle=1" parent="1" vertex="1">
          <mxGeometry x="86.5" y="70" width="40" height="40" as="geometry" />
        </mxCell>
        <mxCell id="4" value="16 Apr 12" style="fillColor=#23445D;strokeColor=#FFFFFF;strokeWidth=2;fontColor=#FFFFFF;fontStyle=1" parent="1" vertex="1">
          <mxGeometry x="686.5000000000018" y="70.00000000000011" width="140" height="20" as="geometry" />
        </mxCell>
        <mxCell id="5" value="M" style="fillColor=#23445D;strokeColor=#FFFFFF;strokeWidth=2;fontColor=#FFFFFF;fontStyle=1" parent="1" vertex="1">
          <mxGeometry x="686.5000000000018" y="90.00000000000011" width="20" height="20" as="geometry" />
        </mxCell>
        <mxCell id="6" value="T" style="fillColor=#23445D;strokeColor=#FFFFFF;strokeWidth=2;fontColor=#FFFFFF;fontStyle=1" parent="1" vertex="1">
          <mxGeometry x="706.5000000000018" y="90.00000000000011" width="20" height="20" as="geometry" />
        </mxCell>
        <mxCell id="7" value="W" style="fillColor=#23445D;strokeColor=#FFFFFF;strokeWidth=2;fontColor=#FFFFFF;fontStyle=1" parent="1" vertex="1">
          <mxGeometry x="726.5000000000018" y="90.00000000000011" width="20" height="20" as="geometry" />
        </mxCell>
        <mxCell id="8" value="T" style="fillColor=#23445D;strokeColor=#FFFFFF;strokeWidth=2;fontColor=#FFFFFF;fontStyle=1" parent="1" vertex="1">
          <mxGeometry x="746.5000000000018" y="90.00000000000011" width="20" height="20" as="geometry" />
        </mxCell>
        <mxCell id="9" value="F" style="fillColor=#23445D;strokeColor=#FFFFFF;strokeWidth=2;fontColor=#FFFFFF;fontStyle=1" parent="1" vertex="1">
          <mxGeometry x="766.5000000000016" y="90.00000000000011" width="20" height="20" as="geometry" />
        </mxCell>
        <mxCell id="10" value="S" style="fillColor=#23445D;strokeColor=#FFFFFF;strokeWidth=2;fontColor=#FFFFFF;fontStyle=1" parent="1" vertex="1">
          <mxGeometry x="786.5000000000016" y="90.00000000000011" width="20" height="20" as="geometry" />
        </mxCell>
        <mxCell id="11" value="S" style="fillColor=#23445D;strokeColor=#FFFFFF;strokeWidth=2;fontColor=#FFFFFF;fontStyle=1" parent="1" vertex="1">
          <mxGeometry x="806.5000000000016" y="90.00000000000011" width="20" height="20" as="geometry" />
        </mxCell>
        <mxCell id="12" value="Duration" style="fillColor=#23445D;strokeColor=#FFFFFF;strokeWidth=2;fontColor=#FFFFFF;fontStyle=1" parent="1" vertex="1">
          <mxGeometry x="446.50000000000176" y="70.00000000000006" width="80.00000000000006" height="40.00000000000001" as="geometry" />
        </mxCell>
        <mxCell id="13" value="Start" style="fillColor=#23445D;strokeColor=#FFFFFF;strokeWidth=2;fontColor=#FFFFFF;fontStyle=1" parent="1" vertex="1">
          <mxGeometry x="526.5000000000018" y="70.00000000000006" width="80.00000000000006" height="40.00000000000001" as="geometry" />
        </mxCell>
        <mxCell id="14" value="ETA" style="fillColor=#23445D;strokeColor=#FFFFFF;strokeWidth=2;fontColor=#FFFFFF;fontStyle=1" parent="1" vertex="1">
          <mxGeometry x="606.5000000000019" y="70.00000000000011" width="80.00000000000006" height="40.00000000000001" as="geometry" />
        </mxCell>
        <mxCell id="15" value="23 Apr 12" style="fillColor=#23445D;strokeColor=#FFFFFF;strokeWidth=2;fontColor=#FFFFFF;fontStyle=1" parent="1" vertex="1">
          <mxGeometry x="826.5000000000018" y="70.00000000000011" width="140" height="20" as="geometry" />
        </mxCell>
        <mxCell id="16" value="M" style="fillColor=#23445D;strokeColor=#FFFFFF;strokeWidth=2;fontColor=#FFFFFF;fontStyle=1" parent="1" vertex="1">
          <mxGeometry x="826.5000000000018" y="90.00000000000011" width="20" height="20" as="geometry" />
        </mxCell>
        <mxCell id="17" value="T" style="fillColor=#23445D;strokeColor=#FFFFFF;strokeWidth=2;fontColor=#FFFFFF;fontStyle=1" parent="1" vertex="1">
          <mxGeometry x="846.5000000000018" y="90.00000000000011" width="20" height="20" as="geometry" />
        </mxCell>
        <mxCell id="18" value="W" style="fillColor=#23445D;strokeColor=#FFFFFF;strokeWidth=2;fontColor=#FFFFFF;fontStyle=1" parent="1" vertex="1">
          <mxGeometry x="866.5000000000018" y="90.00000000000011" width="20" height="20" as="geometry" />
        </mxCell>
        <mxCell id="19" value="T" style="fillColor=#23445D;strokeColor=#FFFFFF;strokeWidth=2;fontColor=#FFFFFF;fontStyle=1" parent="1" vertex="1">
          <mxGeometry x="886.5000000000018" y="90.00000000000011" width="20" height="20" as="geometry" />
        </mxCell>
        <mxCell id="20" value="F" style="fillColor=#23445D;strokeColor=#FFFFFF;strokeWidth=2;fontColor=#FFFFFF;fontStyle=1" parent="1" vertex="1">
          <mxGeometry x="906.5000000000016" y="90.00000000000011" width="20" height="20" as="geometry" />
        </mxCell>
        <mxCell id="21" value="S" style="fillColor=#23445D;strokeColor=#FFFFFF;strokeWidth=2;fontColor=#FFFFFF;fontStyle=1" parent="1" vertex="1">
          <mxGeometry x="926.5000000000016" y="90.00000000000011" width="20" height="20" as="geometry" />
        </mxCell>
        <mxCell id="22" value="S" style="fillColor=#23445D;strokeColor=#FFFFFF;strokeWidth=2;fontColor=#FFFFFF;fontStyle=1" parent="1" vertex="1">
          <mxGeometry x="946.5000000000016" y="90.00000000000011" width="20" height="20" as="geometry" />
        </mxCell>
        <mxCell id="23" value="30 Apr 12" style="fillColor=#23445D;strokeColor=#FFFFFF;strokeWidth=2;fontColor=#FFFFFF;fontStyle=1" parent="1" vertex="1">
          <mxGeometry x="966.5000000000018" y="70.00000000000006" width="140" height="20" as="geometry" />
        </mxCell>
        <mxCell id="24" value="M" style="fillColor=#23445D;strokeColor=#FFFFFF;strokeWidth=2;fontColor=#FFFFFF;fontStyle=1" parent="1" vertex="1">
          <mxGeometry x="966.5000000000018" y="90.00000000000006" width="20" height="20" as="geometry" />
        </mxCell>
        <mxCell id="25" value="T" style="fillColor=#23445D;strokeColor=#FFFFFF;strokeWidth=2;fontColor=#FFFFFF;fontStyle=1" parent="1" vertex="1">
          <mxGeometry x="986.5000000000018" y="90.00000000000006" width="20" height="20" as="geometry" />
        </mxCell>
        <mxCell id="26" value="W" style="fillColor=#23445D;strokeColor=#FFFFFF;strokeWidth=2;fontColor=#FFFFFF;fontStyle=1" parent="1" vertex="1">
          <mxGeometry x="1006.5000000000018" y="90.00000000000006" width="20" height="20" as="geometry" />
        </mxCell>
        <mxCell id="27" value="T" style="fillColor=#23445D;strokeColor=#FFFFFF;strokeWidth=2;fontColor=#FFFFFF;fontStyle=1" parent="1" vertex="1">
          <mxGeometry x="1026.5000000000018" y="90.00000000000006" width="20" height="20" as="geometry" />
        </mxCell>
        <mxCell id="28" value="F" style="fillColor=#23445D;strokeColor=#FFFFFF;strokeWidth=2;fontColor=#FFFFFF;fontStyle=1" parent="1" vertex="1">
          <mxGeometry x="1046.5000000000016" y="90.00000000000006" width="20" height="20" as="geometry" />
        </mxCell>
        <mxCell id="29" value="S" style="fillColor=#23445D;strokeColor=#FFFFFF;strokeWidth=2;fontColor=#FFFFFF;fontStyle=1" parent="1" vertex="1">
          <mxGeometry x="1066.5000000000016" y="90.00000000000006" width="20" height="20" as="geometry" />
        </mxCell>
        <mxCell id="30" value="S" style="fillColor=#23445D;strokeColor=#FFFFFF;strokeWidth=2;fontColor=#FFFFFF;fontStyle=1" parent="1" vertex="1">
          <mxGeometry x="1086.5000000000016" y="90.00000000000006" width="20" height="20" as="geometry" />
        </mxCell>
        <mxCell id="31" value="7 May 12" style="fillColor=#23445D;strokeColor=#FFFFFF;strokeWidth=2;fontColor=#FFFFFF;fontStyle=1" parent="1" vertex="1">
          <mxGeometry x="1106.5000000000018" y="70.00000000000006" width="140" height="20" as="geometry" />
        </mxCell>
        <mxCell id="32" value="M" style="fillColor=#23445D;strokeColor=#FFFFFF;strokeWidth=2;fontColor=#FFFFFF;fontStyle=1" parent="1" vertex="1">
          <mxGeometry x="1106.5000000000018" y="90.00000000000006" width="20" height="20" as="geometry" />
        </mxCell>
        <mxCell id="33" value="T" style="fillColor=#23445D;strokeColor=#FFFFFF;strokeWidth=2;fontColor=#FFFFFF;fontStyle=1" parent="1" vertex="1">
          <mxGeometry x="1126.5000000000018" y="90.00000000000006" width="20" height="20" as="geometry" />
        </mxCell>
        <mxCell id="34" value="W" style="fillColor=#23445D;strokeColor=#FFFFFF;strokeWidth=2;fontColor=#FFFFFF;fontStyle=1" parent="1" vertex="1">
          <mxGeometry x="1146.5000000000018" y="90.00000000000006" width="20" height="20" as="geometry" />
        </mxCell>
        <mxCell id="35" value="T" style="fillColor=#23445D;strokeColor=#FFFFFF;strokeWidth=2;fontColor=#FFFFFF;fontStyle=1" parent="1" vertex="1">
          <mxGeometry x="1166.5000000000018" y="90.00000000000006" width="20" height="20" as="geometry" />
        </mxCell>
        <mxCell id="36" value="F" style="fillColor=#23445D;strokeColor=#FFFFFF;strokeWidth=2;fontColor=#FFFFFF;fontStyle=1" parent="1" vertex="1">
          <mxGeometry x="1186.5000000000016" y="90" width="20" height="20" as="geometry" />
        </mxCell>
        <mxCell id="37" value="S" style="fillColor=#23445D;strokeColor=#FFFFFF;strokeWidth=2;fontColor=#FFFFFF;fontStyle=1" parent="1" vertex="1">
          <mxGeometry x="1206.5000000000016" y="90" width="20" height="20" as="geometry" />
        </mxCell>
        <mxCell id="38" value="S" style="fillColor=#23445D;strokeColor=#FFFFFF;strokeWidth=2;fontColor=#FFFFFF;fontStyle=1" parent="1" vertex="1">
          <mxGeometry x="1226.5000000000016" y="90" width="20" height="20" as="geometry" />
        </mxCell>
        <mxCell id="39" value="14 May 12" style="fillColor=#23445D;strokeColor=#FFFFFF;strokeWidth=2;fontColor=#FFFFFF;fontStyle=1" parent="1" vertex="1">
          <mxGeometry x="1246.5000000000018" y="70.00000000000006" width="140" height="20" as="geometry" />
        </mxCell>
        <mxCell id="40" value="M" style="fillColor=#23445D;strokeColor=#FFFFFF;strokeWidth=2;fontColor=#FFFFFF;fontStyle=1" parent="1" vertex="1">
          <mxGeometry x="1246.5000000000018" y="90.00000000000006" width="20" height="20" as="geometry" />
        </mxCell>
        <mxCell id="41" value="T" style="fillColor=#23445D;strokeColor=#FFFFFF;strokeWidth=2;fontColor=#FFFFFF;fontStyle=1" parent="1" vertex="1">
          <mxGeometry x="1266.5000000000018" y="90.00000000000006" width="20" height="20" as="geometry" />
        </mxCell>
        <mxCell id="42" value="W" style="fillColor=#23445D;strokeColor=#FFFFFF;strokeWidth=2;fontColor=#FFFFFF;fontStyle=1" parent="1" vertex="1">
          <mxGeometry x="1286.5000000000018" y="90.00000000000006" width="20" height="20" as="geometry" />
        </mxCell>
        <mxCell id="43" value="T" style="fillColor=#23445D;strokeColor=#FFFFFF;strokeWidth=2;fontColor=#FFFFFF;fontStyle=1" parent="1" vertex="1">
          <mxGeometry x="1306.5000000000018" y="90.00000000000006" width="20" height="20" as="geometry" />
        </mxCell>
        <mxCell id="44" value="F" style="fillColor=#23445D;strokeColor=#FFFFFF;strokeWidth=2;fontColor=#FFFFFF;fontStyle=1" parent="1" vertex="1">
          <mxGeometry x="1326.5000000000016" y="90" width="20" height="20" as="geometry" />
        </mxCell>
        <mxCell id="45" value="S" style="fillColor=#23445D;strokeColor=#FFFFFF;strokeWidth=2;fontColor=#FFFFFF;fontStyle=1" parent="1" vertex="1">
          <mxGeometry x="1346.5000000000016" y="90" width="20" height="20" as="geometry" />
        </mxCell>
        <mxCell id="46" value="S" style="fillColor=#23445D;strokeColor=#FFFFFF;strokeWidth=2;fontColor=#FFFFFF;fontStyle=1" parent="1" vertex="1">
          <mxGeometry x="1366.5000000000016" y="90" width="20" height="20" as="geometry" />
        </mxCell>
        <mxCell id="47" value="21 May 12" style="fillColor=#23445D;strokeColor=#FFFFFF;strokeWidth=2;fontColor=#FFFFFF;fontStyle=1" parent="1" vertex="1">
          <mxGeometry x="1386.5000000000018" y="70" width="140" height="20" as="geometry" />
        </mxCell>
        <mxCell id="48" value="M" style="fillColor=#23445D;strokeColor=#FFFFFF;strokeWidth=2;fontColor=#FFFFFF;fontStyle=1" parent="1" vertex="1">
          <mxGeometry x="1386.5000000000018" y="90" width="20" height="20" as="geometry" />
        </mxCell>
        <mxCell id="49" value="T" style="fillColor=#23445D;strokeColor=#FFFFFF;strokeWidth=2;fontColor=#FFFFFF;fontStyle=1" parent="1" vertex="1">
          <mxGeometry x="1406.5000000000018" y="90" width="20" height="20" as="geometry" />
        </mxCell>
        <mxCell id="50" value="W" style="fillColor=#23445D;strokeColor=#FFFFFF;strokeWidth=2;fontColor=#FFFFFF;fontStyle=1" parent="1" vertex="1">
          <mxGeometry x="1426.5000000000018" y="90" width="20" height="20" as="geometry" />
        </mxCell>
        <mxCell id="51" value="T" style="fillColor=#23445D;strokeColor=#FFFFFF;strokeWidth=2;fontColor=#FFFFFF;fontStyle=1" parent="1" vertex="1">
          <mxGeometry x="1446.5000000000018" y="90" width="20" height="20" as="geometry" />
        </mxCell>
        <mxCell id="52" value="F" style="fillColor=#23445D;strokeColor=#FFFFFF;strokeWidth=2;fontColor=#FFFFFF;fontStyle=1" parent="1" vertex="1">
          <mxGeometry x="1466.5000000000016" y="90" width="20" height="20" as="geometry" />
        </mxCell>
        <mxCell id="53" value="S" style="fillColor=#23445D;strokeColor=#FFFFFF;strokeWidth=2;fontColor=#FFFFFF;fontStyle=1" parent="1" vertex="1">
          <mxGeometry x="1486.5000000000016" y="90" width="20" height="20" as="geometry" />
        </mxCell>
        <mxCell id="54" value="S" style="fillColor=#23445D;strokeColor=#FFFFFF;strokeWidth=2;fontColor=#FFFFFF;fontStyle=1" parent="1" vertex="1">
          <mxGeometry x="1506.5000000000016" y="90" width="20" height="20" as="geometry" />
        </mxCell>
        <mxCell id="55" value="28 May 12" style="fillColor=#23445D;strokeColor=#FFFFFF;strokeWidth=2;fontColor=#FFFFFF;fontStyle=1" parent="1" vertex="1">
          <mxGeometry x="1526.5000000000018" y="70.00000000000011" width="140" height="20" as="geometry" />
        </mxCell>
        <mxCell id="56" value="M" style="fillColor=#23445D;strokeColor=#FFFFFF;strokeWidth=2;fontColor=#FFFFFF;fontStyle=1" parent="1" vertex="1">
          <mxGeometry x="1526.5000000000018" y="90.00000000000011" width="20" height="20" as="geometry" />
        </mxCell>
        <mxCell id="57" value="T" style="fillColor=#23445D;strokeColor=#FFFFFF;strokeWidth=2;fontColor=#FFFFFF;fontStyle=1" parent="1" vertex="1">
          <mxGeometry x="1546.5000000000018" y="90.00000000000011" width="20" height="20" as="geometry" />
        </mxCell>
        <mxCell id="58" value="W" style="fillColor=#23445D;strokeColor=#FFFFFF;strokeWidth=2;fontColor=#FFFFFF;fontStyle=1" parent="1" vertex="1">
          <mxGeometry x="1566.5000000000018" y="90.00000000000011" width="20" height="20" as="geometry" />
        </mxCell>
        <mxCell id="59" value="T" style="fillColor=#23445D;strokeColor=#FFFFFF;strokeWidth=2;fontColor=#FFFFFF;fontStyle=1" parent="1" vertex="1">
          <mxGeometry x="1586.5000000000018" y="90.00000000000011" width="20" height="20" as="geometry" />
        </mxCell>
        <mxCell id="60" value="F" style="fillColor=#23445D;strokeColor=#FFFFFF;strokeWidth=2;fontColor=#FFFFFF;fontStyle=1" parent="1" vertex="1">
          <mxGeometry x="1606.5000000000016" y="90.00000000000011" width="20" height="20" as="geometry" />
        </mxCell>
        <mxCell id="61" value="S" style="fillColor=#23445D;strokeColor=#FFFFFF;strokeWidth=2;fontColor=#FFFFFF;fontStyle=1" parent="1" vertex="1">
          <mxGeometry x="1626.5000000000016" y="90.00000000000011" width="20" height="20" as="geometry" />
        </mxCell>
        <mxCell id="62" value="S" style="fillColor=#23445D;strokeColor=#FFFFFF;strokeWidth=2;fontColor=#FFFFFF;fontStyle=1" parent="1" vertex="1">
          <mxGeometry x="1646.5000000000016" y="90.00000000000011" width="20" height="20" as="geometry" />
        </mxCell>
        <mxCell id="242" value="" style="shape=mxgraph.flowchart.process;fillColor=#AE4132;strokeColor=#000000;strokeWidth=2;opacity=50" parent="1" vertex="1">
          <mxGeometry x="686.5000000000015" y="130.0000000000004" width="940.0000000000006" height="19.99999999999983" as="geometry" />
        </mxCell>
        <mxCell id="243" value="" style="shape=mxgraph.arrows.bent_right_arrow;fillColor=#AE4132;strokeColor=none;strokeWidth=2;direction=south" parent="1" vertex="1">
          <mxGeometry x="706.500000000002" y="159.99999999999966" width="10.000000000000341" height="9.99999999999983" as="geometry" />
        </mxCell>
        <mxCell id="244" value="" style="shape=mxgraph.flowchart.process;fillColor=#AE4132;strokeColor=none;strokeWidth=2;opacity=50" parent="1" vertex="1">
          <mxGeometry x="686.5000000000032" y="149.99999999999972" width="19.999999999998863" height="19.99999999999983" as="geometry" />
        </mxCell>
        <mxCell id="245" value="" style="shape=mxgraph.flowchart.process;fillColor=#AE4132;strokeColor=none;strokeWidth=2;opacity=50" parent="1" vertex="1">
          <mxGeometry x="706.5000000000018" y="170.00000000000057" width="40.00000000000023" height="19.99999999999983" as="geometry" />
        </mxCell>
        <mxCell id="246" value="" style="shape=mxgraph.flowchart.process;fillColor=#AE4132;strokeColor=none;strokeWidth=2;opacity=50" parent="1" vertex="1">
          <mxGeometry x="746.5000000000018" y="190.00000000000085" width="19.999999999998863" height="19.99999999999983" as="geometry" />
        </mxCell>
        <mxCell id="247" value="" style="shape=mxgraph.flowchart.process;fillColor=#AE4132;strokeColor=none;strokeWidth=2;opacity=50" parent="1" vertex="1">
          <mxGeometry x="866.5000000000016" y="230.0000000000016" width="739.9999999999995" height="19.99999999999983" as="geometry" />
        </mxCell>
        <mxCell id="248" value="" style="shape=mxgraph.flowchart.process;fillColor=#AE4132;strokeColor=none;strokeWidth=2;opacity=50" parent="1" vertex="1">
          <mxGeometry x="1606.5000000000032" y="250.00000000000136" width="19.999999999998863" height="19.99999999999983" as="geometry" />
        </mxCell>
        <mxCell id="249" value="" style="shape=mxgraph.arrows.bent_right_arrow;fillColor=#AE4132;strokeColor=none;strokeWidth=2;direction=south" parent="1" vertex="1">
          <mxGeometry x="746.500000000001" y="179.99999999999943" width="10.000000000000341" height="9.99999999999983" as="geometry" />
        </mxCell>
        <mxCell id="250" value="" style="shape=mxgraph.arrows.bent_right_arrow;fillColor=#AE4132;strokeColor=none;strokeWidth=2;direction=south" parent="1" vertex="1">
          <mxGeometry x="766.5000000000007" y="200.0000000000001" width="10.000000000000341" height="9.99999999999983" as="geometry" />
        </mxCell>
        <mxCell id="251" value="" style="shape=mxgraph.arrows.bent_right_arrow;fillColor=#AE4132;strokeColor=none;strokeWidth=2;direction=south" parent="1" vertex="1">
          <mxGeometry x="1606.500000000002" y="240.0000000000016" width="10.000000000000341" height="9.99999999999983" as="geometry" />
        </mxCell>
        <mxCell id="252" value="" style="shape=mxgraph.flowchart.process;fillColor=#AE4132;strokeColor=none;strokeWidth=2;opacity=50" parent="1" vertex="1">
          <mxGeometry x="766.5000000000019" y="209.9999999999999" width="100.00000000000011" height="19.99999999999983" as="geometry" />
        </mxCell>
        <mxCell id="253" value="" style="shape=mxgraph.arrows.bent_right_arrow;fillColor=#AE4132;strokeColor=none;strokeWidth=2;direction=south" parent="1" vertex="1">
          <mxGeometry x="866.500000000002" y="219.99999999999983" width="10.000000000000341" height="9.99999999999983" as="geometry" />
        </mxCell>
        <mxCell id="254" value="" style="shape=mxgraph.flowchart.process;fillColor=#AE4132;strokeColor=#000000;strokeWidth=2;opacity=100" parent="1" vertex="1">
          <mxGeometry x="686.500000000001" y="110" width="940.0000000000006" height="19.99999999999983" as="geometry" />
        </mxCell>
        <mxCell id="255" value="" style="shape=mxgraph.flowchart.process;fillColor=#AE4132;strokeColor=none;strokeWidth=2;opacity=50" parent="1" vertex="1">
          <mxGeometry x="846.5" y="290.0000000000016" width="40" height="19.99999999999983" as="geometry" />
        </mxCell>
        <mxCell id="256" value="" style="shape=mxgraph.flowchart.process;fillColor=#AE4132;strokeColor=#000000;strokeWidth=2;opacity=50" parent="1" vertex="1">
          <mxGeometry x="846.5" y="270.00000000000057" width="560" height="19.9999999999998" as="geometry" />
        </mxCell>
        <mxCell id="257" value="" style="shape=mxgraph.flowchart.process;fillColor=#AE4132;strokeColor=none;strokeWidth=2;opacity=50" parent="1" vertex="1">
          <mxGeometry x="886.4999999999999" y="310.00000000000193" width="80.00000000000011" height="19.99999999999983" as="geometry" />
        </mxCell>
        <mxCell id="258" value="" style="shape=mxgraph.flowchart.process;fillColor=#AE4132;strokeColor=none;strokeWidth=2;opacity=50" parent="1" vertex="1">
          <mxGeometry x="966.4999999999999" y="330.00000000000114" width="60.000000000000114" height="19.99999999999983" as="geometry" />
        </mxCell>
        <mxCell id="259" value="" style="shape=mxgraph.flowchart.process;fillColor=#AE4132;strokeColor=none;strokeWidth=2;opacity=50" parent="1" vertex="1">
          <mxGeometry x="1026.5000000000018" y="350.00000000000045" width="279.99999999999807" height="19.99999999999983" as="geometry" />
        </mxCell>
        <mxCell id="260" value="" style="shape=mxgraph.flowchart.process;fillColor=#AE4132;strokeColor=none;strokeWidth=2;opacity=50" parent="1" vertex="1">
          <mxGeometry x="1306.500000000002" y="370.0000000000002" width="79.99999999999795" height="19.99999999999983" as="geometry" />
        </mxCell>
        <mxCell id="261" value="" style="shape=mxgraph.flowchart.process;fillColor=#AE4132;strokeColor=none;strokeWidth=2;opacity=50" parent="1" vertex="1">
          <mxGeometry x="1386.5000000000039" y="390.0000000000001" width="19.999999999996135" height="19.99999999999983" as="geometry" />
        </mxCell>
        <mxCell id="262" value="" style="shape=mxgraph.flowchart.process;fillColor=#AE4132;strokeColor=none;strokeWidth=2;opacity=50" parent="1" vertex="1">
          <mxGeometry x="746.5000000000022" y="430.00000000000205" width="219.99999999999784" height="19.99999999999983" as="geometry" />
        </mxCell>
        <mxCell id="263" value="" style="shape=mxgraph.flowchart.process;fillColor=#AE4132;strokeColor=none;strokeWidth=2;opacity=50" parent="1" vertex="1">
          <mxGeometry x="966.5000000000017" y="450.0000000000018" width="79.9999999999983" height="19.99999999999983" as="geometry" />
        </mxCell>
        <mxCell id="264" value="" style="shape=mxgraph.flowchart.process;fillColor=#AE4132;strokeColor=none;strokeWidth=2;opacity=50" parent="1" vertex="1">
          <mxGeometry x="1046.5000000000036" y="470.0000000000016" width="379.9999999999965" height="19.99999999999983" as="geometry" />
        </mxCell>
        <mxCell id="265" value="" style="shape=mxgraph.flowchart.process;fillColor=#AE4132;strokeColor=none;strokeWidth=2;opacity=50" parent="1" vertex="1">
          <mxGeometry x="1426.5000000000034" y="490.00000000000136" width="19.99999999999659" height="19.99999999999983" as="geometry" />
        </mxCell>
        <mxCell id="266" value="" style="shape=mxgraph.flowchart.process;fillColor=#AE4132;strokeColor=none;strokeWidth=2;opacity=50" parent="1" vertex="1">
          <mxGeometry x="1446.5000000000052" y="510.0000000000035" width="119.99999999999477" height="19.99999999999983" as="geometry" />
        </mxCell>
        <mxCell id="267" value="" style="shape=mxgraph.flowchart.process;fillColor=#AE4132;strokeColor=none;strokeWidth=2;opacity=50" parent="1" vertex="1">
          <mxGeometry x="1566.5" y="530.0000000000011" width="40" height="19.99999999999983" as="geometry" />
        </mxCell>
        <mxCell id="268" value="" style="shape=mxgraph.flowchart.process;fillColor=#AE4132;strokeColor=#000000;strokeWidth=2;opacity=50" parent="1" vertex="1">
          <mxGeometry x="746.5" y="410.00000000000273" width="860" height="19.999999999999773" as="geometry" />
        </mxCell>
        <mxCell id="269" value="" style="shape=mxgraph.arrows.bent_right_arrow;fillColor=#AE4132;strokeColor=none;strokeWidth=2;direction=south" parent="1" vertex="1">
          <mxGeometry x="886.5000000000024" y="300.00000000000205" width="10.000000000000341" height="9.99999999999983" as="geometry" />
        </mxCell>
        <mxCell id="270" value="" style="shape=mxgraph.arrows.bent_right_arrow;fillColor=#AE4132;strokeColor=none;strokeWidth=2;direction=south" parent="1" vertex="1">
          <mxGeometry x="966.4999999999998" y="320.00000000000193" width="10.000000000000341" height="9.99999999999983" as="geometry" />
        </mxCell>
        <mxCell id="271" value="" style="shape=mxgraph.arrows.bent_right_arrow;fillColor=#AE4132;strokeColor=none;strokeWidth=2;direction=south" parent="1" vertex="1">
          <mxGeometry x="1026.5" y="340.00000000000193" width="10.000000000000341" height="9.99999999999983" as="geometry" />
        </mxCell>
        <mxCell id="272" value="" style="shape=mxgraph.arrows.bent_right_arrow;fillColor=#AE4132;strokeColor=none;strokeWidth=2;direction=south" parent="1" vertex="1">
          <mxGeometry x="1306.5" y="360.00000000003683" width="10.000000000000341" height="9.99999999999983" as="geometry" />
        </mxCell>
        <mxCell id="273" value="" style="shape=mxgraph.arrows.bent_right_arrow;fillColor=#AE4132;strokeColor=none;strokeWidth=2;direction=south" parent="1" vertex="1">
          <mxGeometry x="1386.5" y="380.0000000000023" width="10.000000000000341" height="9.99999999999983" as="geometry" />
        </mxCell>
        <mxCell id="274" value="" style="shape=mxgraph.arrows.bent_right_arrow;fillColor=#AE4132;strokeColor=none;strokeWidth=2;direction=south" parent="1" vertex="1">
          <mxGeometry x="966.5000000000018" y="440.00000000000273" width="10.000000000000341" height="9.99999999999983" as="geometry" />
        </mxCell>
        <mxCell id="275" value="" style="shape=mxgraph.arrows.bent_right_arrow;fillColor=#AE4132;strokeColor=none;strokeWidth=2;direction=south" parent="1" vertex="1">
          <mxGeometry x="1046.5000000000036" y="460.00000000000296" width="10.000000000000341" height="9.99999999999983" as="geometry" />
        </mxCell>
        <mxCell id="276" value="" style="shape=mxgraph.arrows.bent_right_arrow;fillColor=#AE4132;strokeColor=none;strokeWidth=2;direction=south" parent="1" vertex="1">
          <mxGeometry x="1426.5000000000036" y="480.00000000000296" width="10.000000000000341" height="9.99999999999983" as="geometry" />
        </mxCell>
        <mxCell id="277" value="" style="shape=mxgraph.arrows.bent_right_arrow;fillColor=#AE4132;strokeColor=none;strokeWidth=2;direction=south" parent="1" vertex="1">
          <mxGeometry x="1446.5" y="500.00000000000375" width="10.000000000000341" height="9.99999999999983" as="geometry" />
        </mxCell>
        <mxCell id="278" value="" style="shape=mxgraph.arrows.bent_right_arrow;fillColor=#AE4132;strokeColor=none;strokeWidth=2;direction=south" parent="1" vertex="1">
          <mxGeometry x="1566.5000000000018" y="520.0000000000014" width="10.000000000000341" height="9.99999999999983" as="geometry" />
        </mxCell>
        <mxCell id="vqTSIfuXOB0uQjwyaAZh-279" value="" style="shape=table;startSize=0;container=1;collapsible=0;childLayout=tableLayout;" vertex="1" parent="1">
          <mxGeometry x="720" y="750" width="780" height="370" as="geometry" />
        </mxCell>
        <mxCell id="vqTSIfuXOB0uQjwyaAZh-280" value="" style="shape=tableRow;horizontal=0;startSize=0;swimlaneHead=0;swimlaneBody=0;top=0;left=0;bottom=0;right=0;collapsible=0;dropTarget=0;fillColor=none;points=[[0,0.5],[1,0.5]];portConstraint=eastwest;" vertex="1" parent="vqTSIfuXOB0uQjwyaAZh-279">
          <mxGeometry width="780" height="53" as="geometry" />
        </mxCell>
        <mxCell id="vqTSIfuXOB0uQjwyaAZh-281" value="&lt;span style=&quot;background-color: initial; font-size: 14pt; font-family: 等线; font-weight: bold;&quot;&gt;目标&lt;/span&gt;&lt;span style=&quot;background-color: initial; font-size: 14pt; font-family: 等线; font-weight: bold;&quot;&gt;-Objectives&lt;/span&gt;" style="shape=partialRectangle;html=1;whiteSpace=wrap;connectable=0;overflow=hidden;fillColor=none;top=0;left=0;bottom=0;right=0;pointerEvents=1;" vertex="1" parent="vqTSIfuXOB0uQjwyaAZh-280">
          <mxGeometry width="260" height="53" as="geometry">
            <mxRectangle width="260" height="53" as="alternateBounds" />
          </mxGeometry>
        </mxCell>
        <mxCell id="vqTSIfuXOB0uQjwyaAZh-282" value="&lt;span style=&quot;text-indent: 0in; background-color: initial; font-size: 14pt; font-family: 等线; font-weight: bold;&quot;&gt;实现策略&lt;/span&gt;&lt;span style=&quot;text-indent: 0in; background-color: initial; font-size: 14pt; font-family: 等线; font-weight: bold;&quot;&gt;-Tactics&lt;/span&gt;&lt;br&gt;" style="shape=partialRectangle;html=1;whiteSpace=wrap;connectable=0;overflow=hidden;fillColor=none;top=0;left=0;bottom=0;right=0;pointerEvents=1;verticalAlign=middle;" vertex="1" parent="vqTSIfuXOB0uQjwyaAZh-280">
          <mxGeometry x="260" width="260" height="53" as="geometry">
            <mxRectangle width="260" height="53" as="alternateBounds" />
          </mxGeometry>
        </mxCell>
        <mxCell id="vqTSIfuXOB0uQjwyaAZh-283" value="&lt;span style=&quot;background-color: initial; font-size: 14pt; font-family: 等线; font-weight: bold;&quot;&gt;关键结果&lt;/span&gt;&lt;span style=&quot;background-color: initial; font-size: 14pt; font-family: 等线; font-weight: bold;&quot;&gt;-Key&lt;/span&gt;&lt;br&gt;&lt;p style=&quot;margin-top: 0pt; margin-bottom: 0pt; margin-left: 0in; direction: ltr; unicode-bidi: embed; word-break: normal;&quot;&gt;&lt;span style=&quot;font-size: 14pt; font-family: 等线; font-weight: bold;&quot;&gt;Results&lt;/span&gt;&lt;/p&gt;" style="shape=partialRectangle;html=1;whiteSpace=wrap;connectable=0;overflow=hidden;fillColor=none;top=0;left=0;bottom=0;right=0;pointerEvents=1;verticalAlign=middle;" vertex="1" parent="vqTSIfuXOB0uQjwyaAZh-280">
          <mxGeometry x="520" width="260" height="53" as="geometry">
            <mxRectangle width="260" height="53" as="alternateBounds" />
          </mxGeometry>
        </mxCell>
        <mxCell id="vqTSIfuXOB0uQjwyaAZh-284" value="" style="shape=tableRow;horizontal=0;startSize=0;swimlaneHead=0;swimlaneBody=0;top=0;left=0;bottom=0;right=0;collapsible=0;dropTarget=0;fillColor=none;points=[[0,0.5],[1,0.5]];portConstraint=eastwest;" vertex="1" parent="vqTSIfuXOB0uQjwyaAZh-279">
          <mxGeometry y="53" width="780" height="52" as="geometry" />
        </mxCell>
        <mxCell id="vqTSIfuXOB0uQjwyaAZh-285" value="&lt;span style=&quot;font-family: 等线; font-size: 11pt; background-color: initial;&quot;&gt;边云端产品上线&lt;/span&gt;&lt;br&gt;&lt;br&gt;&lt;br&gt;&lt;p style=&quot;margin-top: 0pt; margin-bottom: 0pt; margin-left: 0in; direction: ltr; unicode-bidi: embed; word-break: normal;&quot;&gt;&lt;span style=&quot;font-size: 11pt; font-family: 等线;&quot;&gt;含CV系列、BM168x系列、SG系列&lt;/span&gt;&lt;/p&gt;&lt;br&gt;" style="shape=partialRectangle;html=1;whiteSpace=wrap;connectable=0;overflow=hidden;fillColor=none;top=0;left=0;bottom=0;right=0;pointerEvents=1;rowspan=3;colspan=1;" vertex="1" parent="vqTSIfuXOB0uQjwyaAZh-284">
          <mxGeometry width="260" height="159" as="geometry">
            <mxRectangle width="260" height="52" as="alternateBounds" />
          </mxGeometry>
        </mxCell>
        <mxCell id="vqTSIfuXOB0uQjwyaAZh-286" value="产品需求调研：产品性能、指标、开发工具、应用场景和解决方案" style="shape=partialRectangle;html=1;whiteSpace=wrap;connectable=0;overflow=hidden;fillColor=none;top=0;left=0;bottom=0;right=0;pointerEvents=1;" vertex="1" parent="vqTSIfuXOB0uQjwyaAZh-284">
          <mxGeometry x="260" width="260" height="52" as="geometry">
            <mxRectangle width="260" height="52" as="alternateBounds" />
          </mxGeometry>
        </mxCell>
        <mxCell id="vqTSIfuXOB0uQjwyaAZh-287" value="&lt;span style=&quot;background-color: initial; font-size: 11pt; font-family: 等线;&quot;&gt;2&lt;/span&gt;&lt;span style=&quot;background-color: initial; font-size: 11pt; font-family: 等线;&quot;&gt;月&lt;/span&gt;&lt;span style=&quot;background-color: initial; font-size: 11pt; font-family: 等线;&quot;&gt;17&lt;/span&gt;&lt;span style=&quot;background-color: initial; font-size: 11pt; font-family: 等线;&quot;&gt;日输出初版需求报告，一周迭代更新一次。&lt;/span&gt;" style="shape=partialRectangle;html=1;whiteSpace=wrap;connectable=0;overflow=hidden;fillColor=none;top=0;left=0;bottom=0;right=0;pointerEvents=1;" vertex="1" parent="vqTSIfuXOB0uQjwyaAZh-284">
          <mxGeometry x="520" width="260" height="52" as="geometry">
            <mxRectangle width="260" height="52" as="alternateBounds" />
          </mxGeometry>
        </mxCell>
        <mxCell id="vqTSIfuXOB0uQjwyaAZh-288" value="" style="shape=tableRow;horizontal=0;startSize=0;swimlaneHead=0;swimlaneBody=0;top=0;left=0;bottom=0;right=0;collapsible=0;dropTarget=0;fillColor=none;points=[[0,0.5],[1,0.5]];portConstraint=eastwest;" vertex="1" parent="vqTSIfuXOB0uQjwyaAZh-279">
          <mxGeometry y="105" width="780" height="53" as="geometry" />
        </mxCell>
        <mxCell id="vqTSIfuXOB0uQjwyaAZh-289" value="" style="shape=partialRectangle;html=1;whiteSpace=wrap;connectable=0;overflow=hidden;fillColor=none;top=0;left=0;bottom=0;right=0;pointerEvents=1;" vertex="1" visible="0" parent="vqTSIfuXOB0uQjwyaAZh-288">
          <mxGeometry width="260" height="53" as="geometry">
            <mxRectangle width="260" height="53" as="alternateBounds" />
          </mxGeometry>
        </mxCell>
        <mxCell id="vqTSIfuXOB0uQjwyaAZh-290" value="SSC研发团队对齐官网布局需求（含产品布局、UI设计）、开发周期" style="shape=partialRectangle;html=1;whiteSpace=wrap;connectable=0;overflow=hidden;fillColor=none;top=0;left=0;bottom=0;right=0;pointerEvents=1;" vertex="1" parent="vqTSIfuXOB0uQjwyaAZh-288">
          <mxGeometry x="260" width="260" height="53" as="geometry">
            <mxRectangle width="260" height="53" as="alternateBounds" />
          </mxGeometry>
        </mxCell>
        <mxCell id="vqTSIfuXOB0uQjwyaAZh-291" value="&lt;span style=&quot;background-color: initial; font-size: 11pt; font-family: 等线;&quot;&gt;2&lt;/span&gt;&lt;span style=&quot;background-color: initial; font-size: 11pt; font-family: 等线;&quot;&gt;月&lt;/span&gt;&lt;span style=&quot;background-color: initial; font-size: 11pt; font-family: 等线;&quot;&gt;22&lt;/span&gt;&lt;span style=&quot;background-color: initial; font-size: 11pt; font-family: 等线;&quot;&gt;日输出开发计划、&lt;/span&gt;&lt;span style=&quot;background-color: initial; font-size: 11pt; font-family: 等线;&quot;&gt;2&lt;/span&gt;&lt;span style=&quot;background-color: initial; font-size: 11pt; font-family: 等线;&quot;&gt;月&lt;/span&gt;&lt;span style=&quot;background-color: initial; font-size: 11pt; font-family: 等线;&quot;&gt;24&lt;/span&gt;&lt;span style=&quot;background-color: initial; font-size: 11pt; font-family: 等线;&quot;&gt;日输出&lt;/span&gt;&lt;span style=&quot;background-color: initial; font-size: 11pt; font-family: 等线;&quot;&gt;UI&lt;/span&gt;&lt;span style=&quot;background-color: initial; font-size: 11pt; font-family: 等线;&quot;&gt;设计原型图&lt;/span&gt;" style="shape=partialRectangle;html=1;whiteSpace=wrap;connectable=0;overflow=hidden;fillColor=none;top=0;left=0;bottom=0;right=0;pointerEvents=1;" vertex="1" parent="vqTSIfuXOB0uQjwyaAZh-288">
          <mxGeometry x="520" width="260" height="53" as="geometry">
            <mxRectangle width="260" height="53" as="alternateBounds" />
          </mxGeometry>
        </mxCell>
        <mxCell id="vqTSIfuXOB0uQjwyaAZh-292" value="" style="shape=tableRow;horizontal=0;startSize=0;swimlaneHead=0;swimlaneBody=0;top=0;left=0;bottom=0;right=0;collapsible=0;dropTarget=0;fillColor=none;points=[[0,0.5],[1,0.5]];portConstraint=eastwest;" vertex="1" parent="vqTSIfuXOB0uQjwyaAZh-279">
          <mxGeometry y="158" width="780" height="54" as="geometry" />
        </mxCell>
        <mxCell id="vqTSIfuXOB0uQjwyaAZh-293" value="" style="shape=partialRectangle;html=1;whiteSpace=wrap;connectable=0;overflow=hidden;fillColor=none;top=0;left=0;bottom=0;right=0;pointerEvents=1;" vertex="1" visible="0" parent="vqTSIfuXOB0uQjwyaAZh-292">
          <mxGeometry width="260" height="54" as="geometry">
            <mxRectangle width="260" height="54" as="alternateBounds" />
          </mxGeometry>
        </mxCell>
        <mxCell id="vqTSIfuXOB0uQjwyaAZh-294" value="&lt;span style=&quot;font-family: 等线; font-size: 11pt; background-color: initial;&quot;&gt;上线前测试和调优&lt;/span&gt;&lt;br&gt;" style="shape=partialRectangle;html=1;whiteSpace=wrap;connectable=0;overflow=hidden;fillColor=none;top=0;left=0;bottom=0;right=0;pointerEvents=1;" vertex="1" parent="vqTSIfuXOB0uQjwyaAZh-292">
          <mxGeometry x="260" width="260" height="54" as="geometry">
            <mxRectangle width="260" height="54" as="alternateBounds" />
          </mxGeometry>
        </mxCell>
        <mxCell id="vqTSIfuXOB0uQjwyaAZh-295" value="&lt;p&gt;3月13日上线调优测试（具体时间会研发对齐微调）&lt;/p&gt;&lt;p&gt;&lt;span style=&quot;background-color: initial;&quot;&gt;4月1日正式上线&lt;/span&gt;&lt;/p&gt;" style="shape=partialRectangle;html=1;whiteSpace=wrap;connectable=0;overflow=hidden;fillColor=none;top=0;left=0;bottom=0;right=0;pointerEvents=1;" vertex="1" parent="vqTSIfuXOB0uQjwyaAZh-292">
          <mxGeometry x="520" width="260" height="54" as="geometry">
            <mxRectangle width="260" height="54" as="alternateBounds" />
          </mxGeometry>
        </mxCell>
        <mxCell id="vqTSIfuXOB0uQjwyaAZh-296" value="" style="shape=tableRow;horizontal=0;startSize=0;swimlaneHead=0;swimlaneBody=0;top=0;left=0;bottom=0;right=0;collapsible=0;dropTarget=0;fillColor=none;points=[[0,0.5],[1,0.5]];portConstraint=eastwest;" vertex="1" parent="vqTSIfuXOB0uQjwyaAZh-279">
          <mxGeometry y="212" width="780" height="53" as="geometry" />
        </mxCell>
        <mxCell id="vqTSIfuXOB0uQjwyaAZh-297" value="官网商城上线" style="shape=partialRectangle;html=1;whiteSpace=wrap;connectable=0;overflow=hidden;fillColor=none;top=0;left=0;bottom=0;right=0;pointerEvents=1;rowspan=3;colspan=1;" vertex="1" parent="vqTSIfuXOB0uQjwyaAZh-296">
          <mxGeometry width="260" height="158" as="geometry">
            <mxRectangle width="260" height="53" as="alternateBounds" />
          </mxGeometry>
        </mxCell>
        <mxCell id="vqTSIfuXOB0uQjwyaAZh-298" value="&lt;div&gt;官网上线前期准备：&lt;/div&gt;&lt;div&gt;产品：主推产品、产品报价体系、产品前端呈现需求&lt;/div&gt;&lt;div&gt;研发：官网设计前台布局和UI设计&lt;/div&gt;&lt;div&gt;财务：收款是否有监管备案政策（ODI及备案）&lt;/div&gt;&lt;div&gt;发货：订单管理（一期手工录入销售订单，二期对接系统）&lt;/div&gt;" style="shape=partialRectangle;html=1;whiteSpace=wrap;connectable=0;overflow=hidden;fillColor=none;top=0;left=0;bottom=0;right=0;pointerEvents=1;" vertex="1" parent="vqTSIfuXOB0uQjwyaAZh-296">
          <mxGeometry x="260" width="260" height="53" as="geometry">
            <mxRectangle width="260" height="53" as="alternateBounds" />
          </mxGeometry>
        </mxCell>
        <mxCell id="vqTSIfuXOB0uQjwyaAZh-299" value="&lt;div&gt;2月17日：&lt;/div&gt;&lt;div&gt;输出需求报告，与上层对需求，输出终版的产品需求文档（PRD）&lt;/div&gt;" style="shape=partialRectangle;html=1;whiteSpace=wrap;connectable=0;overflow=hidden;fillColor=none;top=0;left=0;bottom=0;right=0;pointerEvents=1;" vertex="1" parent="vqTSIfuXOB0uQjwyaAZh-296">
          <mxGeometry x="520" width="260" height="53" as="geometry">
            <mxRectangle width="260" height="53" as="alternateBounds" />
          </mxGeometry>
        </mxCell>
        <mxCell id="vqTSIfuXOB0uQjwyaAZh-300" value="" style="shape=tableRow;horizontal=0;startSize=0;swimlaneHead=0;swimlaneBody=0;top=0;left=0;bottom=0;right=0;collapsible=0;dropTarget=0;fillColor=none;points=[[0,0.5],[1,0.5]];portConstraint=eastwest;" vertex="1" parent="vqTSIfuXOB0uQjwyaAZh-279">
          <mxGeometry y="265" width="780" height="52" as="geometry" />
        </mxCell>
        <mxCell id="vqTSIfuXOB0uQjwyaAZh-301" value="" style="shape=partialRectangle;html=1;whiteSpace=wrap;connectable=0;overflow=hidden;fillColor=none;top=0;left=0;bottom=0;right=0;pointerEvents=1;" vertex="1" visible="0" parent="vqTSIfuXOB0uQjwyaAZh-300">
          <mxGeometry width="260" height="52" as="geometry">
            <mxRectangle width="260" height="52" as="alternateBounds" />
          </mxGeometry>
        </mxCell>
        <mxCell id="vqTSIfuXOB0uQjwyaAZh-302" value="&lt;div&gt;官网上线中期准备：&lt;/div&gt;&lt;div&gt;商城前端页面开发完成、商城后台开发（含产品上架、报价、布局等）、官网个人中心和商城个人中心模板打通、支付页面完成&lt;/div&gt;" style="shape=partialRectangle;html=1;whiteSpace=wrap;connectable=0;overflow=hidden;fillColor=none;top=0;left=0;bottom=0;right=0;pointerEvents=1;" vertex="1" parent="vqTSIfuXOB0uQjwyaAZh-300">
          <mxGeometry x="260" width="260" height="52" as="geometry">
            <mxRectangle width="260" height="52" as="alternateBounds" />
          </mxGeometry>
        </mxCell>
        <mxCell id="vqTSIfuXOB0uQjwyaAZh-303" value="&lt;div&gt;2月22日研发：输出开发计划&lt;/div&gt;&lt;div&gt;单周汇报工作进度&lt;/div&gt;" style="shape=partialRectangle;html=1;whiteSpace=wrap;connectable=0;overflow=hidden;fillColor=none;top=0;left=0;bottom=0;right=0;pointerEvents=1;" vertex="1" parent="vqTSIfuXOB0uQjwyaAZh-300">
          <mxGeometry x="520" width="260" height="52" as="geometry">
            <mxRectangle width="260" height="52" as="alternateBounds" />
          </mxGeometry>
        </mxCell>
        <mxCell id="vqTSIfuXOB0uQjwyaAZh-304" style="shape=tableRow;horizontal=0;startSize=0;swimlaneHead=0;swimlaneBody=0;top=0;left=0;bottom=0;right=0;collapsible=0;dropTarget=0;fillColor=none;points=[[0,0.5],[1,0.5]];portConstraint=eastwest;" vertex="1" parent="vqTSIfuXOB0uQjwyaAZh-279">
          <mxGeometry y="317" width="780" height="53" as="geometry" />
        </mxCell>
        <mxCell id="vqTSIfuXOB0uQjwyaAZh-305" style="shape=partialRectangle;html=1;whiteSpace=wrap;connectable=0;overflow=hidden;fillColor=none;top=0;left=0;bottom=0;right=0;pointerEvents=1;" vertex="1" visible="0" parent="vqTSIfuXOB0uQjwyaAZh-304">
          <mxGeometry width="260" height="53" as="geometry">
            <mxRectangle width="260" height="53" as="alternateBounds" />
          </mxGeometry>
        </mxCell>
        <mxCell id="vqTSIfuXOB0uQjwyaAZh-306" value="&lt;span style=&quot;background-color: initial; font-size: 11pt; font-family: 等线;&quot;&gt;官网上线后期准备：&lt;/span&gt;&lt;span style=&quot;background-color: initial; font-size: 11pt; font-family: 等线;&quot;&gt;上线前测试和调优&lt;/span&gt;" style="shape=partialRectangle;html=1;whiteSpace=wrap;connectable=0;overflow=hidden;fillColor=none;top=0;left=0;bottom=0;right=0;pointerEvents=1;" vertex="1" parent="vqTSIfuXOB0uQjwyaAZh-304">
          <mxGeometry x="260" width="260" height="53" as="geometry">
            <mxRectangle width="260" height="53" as="alternateBounds" />
          </mxGeometry>
        </mxCell>
        <mxCell id="vqTSIfuXOB0uQjwyaAZh-307" value="&lt;div&gt;3月17日上线调优测试（具体时间会研发对齐微调）&lt;/div&gt;&lt;div&gt;4月1日正式上线&lt;/div&gt;" style="shape=partialRectangle;html=1;whiteSpace=wrap;connectable=0;overflow=hidden;fillColor=none;top=0;left=0;bottom=0;right=0;pointerEvents=1;" vertex="1" parent="vqTSIfuXOB0uQjwyaAZh-304">
          <mxGeometry x="520" width="260" height="53" as="geometry">
            <mxRectangle width="260" height="53" as="alternateBounds" />
          </mxGeometry>
        </mxCell>
      </root>
    </mxGraphModel>
  </diagram>
</mxfile>
